<?xml version="1.0" encoding="UTF-8"?>
<svg width="221px" height="103px" viewBox="0 0 221 103" version="1.1" xmlns="http://www.w3.org/2000/svg" xmlns:xlink="http://www.w3.org/1999/xlink">
    <!-- Generator: Sketch 43.1 (39012) - http://www.bohemiancoding.com/sketch -->
    <title>Group 7</title>
    <desc>Created with Sketch.</desc>
    <defs></defs>
    <g id="website-deskto" stroke="none" stroke-width="1" fill="none" fill-rule="evenodd">
        <g id="Desktop" transform="translate(-1039.000000, -2267.000000)">
            <g id="OurClientsLogos" transform="translate(0.000000, 2121.000000)">
                <g id="Group-7" transform="translate(1039.661362, 146.000000)">
                    <g id="logo" fill="#6D6E6E">
                        <path d="M196.706131,51.008 L190.849405,38.514 L202.572863,13.494 L220.154047,51.008 L196.706131,51.008 Z M149.831313,51.008 L173.267221,0.989 L173.270223,0.989 L196.710134,0.989 L173.273225,51.008 L149.831313,51.008 Z" id="Shape"></path>
                        <path d="M143.896537,38.492 L132.172079,13.478 L138.022801,0.989 L161.465714,0.989 L143.896537,38.492 Z M138.026803,51.008 L114.584891,51.008 L91.1419784,0.989 L114.588894,0.989 L138.029805,51.008 L138.026803,51.008 Z" id="Shape"></path>
                        <path d="M80.8874551,51.008 L75.0337314,38.518 L86.7551878,13.496 L104.33337,51.008 L80.8874551,51.008 Z M34.0106353,51.008 L57.4465436,0.989 L80.8914577,0.989 L57.4515468,51.008 L34.0106353,51.008 Z" id="Shape"></path>
                        <polygon id="Shape" points="46.8968326 0.989 23.458923 51.008 0.0150095481 51.008 23.458923 0.989"></polygon>
                    </g>
                    <text id="IRAQ-AND-AFGHANISTAN" font-family="Avenir-Book, Avenir" font-size="16" font-weight="normal" fill="#696969">
                        <tspan x="12.2475417" y="80">IRAQ AND AFGHANISTAN </tspan>
                        <tspan x="18.5515417" y="102">VETERANS OF AMERICA</tspan>
                    </text>
                </g>
            </g>
        </g>
    </g>
</svg>