<?xml version="1.0" encoding="UTF-8"?>
<svg width="105px" height="80px" viewBox="0 0 105 80" version="1.1" xmlns="http://www.w3.org/2000/svg" xmlns:xlink="http://www.w3.org/1999/xlink">
    <!-- Generator: Sketch 43.1 (39012) - http://www.bohemiancoding.com/sketch -->
    <title>Chat Icon</title>
    <desc>Created with Sketch.</desc>
    <defs>
        <path d="M31,1.42491319 C13.8785585,1.42491319 0,14.8936632 0,31.5075955 C0,43.3706597 7.07683405,53.6284722 17.3571228,58.5262587 C18.0742903,64.2174479 16.6577158,70.2382812 13.1033143,74.6230469 C19.925641,74.6230469 25.6899768,69.0577257 27.5862614,61.4084201 C28.7074794,61.5275608 29.8461027,61.5907118 31,61.5907118 C48.1203758,61.5907118 62,48.1219618 62,31.5078125 C62.0001776,14.8936632 48.1201982,1.42491319 31,1.42491319 Z" id="path-1"></path>
    </defs>
    <g id="website-deskto" stroke="none" stroke-width="1" fill="none" fill-rule="evenodd">
        <g id="Desktop" transform="translate(-734.000000, -1090.000000)" fill-rule="nonzero">
            <g id="Blurb-Marketing" transform="translate(640.000000, 1092.000000)">
                <g id="Chat-Icon" transform="translate(97.000000, 0.000000)">
                    <g id="Layer_1">
                        <path d="M65.9091797,0.376953125 C84.7376953,0.376953125 100,13.8454861 100,30.4596354 C100,42.3226997 92.2175781,52.5805122 80.9123047,57.4782986 C80.1236328,63.1694878 81.6814453,69.1903212 85.5902344,73.5750868 C78.0876953,73.5750868 71.7486328,68.0097656 69.6632813,60.3604601 C68.4302734,60.4796007 67.178125,60.5427517 65.9091797,60.5427517 C47.0818359,60.5427517 31.8183594,47.0740017 31.8183594,30.4598524 C31.8181641,13.8454861 47.0820312,0.376953125 65.9091797,0.376953125 Z" id="Shape" stroke="#499DF6" stroke-width="4" fill="#FFFFFF"></path>
                        <g id="Shape">
                            <use fill="#FFFFFF" fill-rule="evenodd" xlink:href="#path-1"></use>
                            <path stroke="#FFFFFF" stroke-width="3" d="M15.9540363,59.5073884 C16.4155515,64.7129884 14.9778815,69.9285211 11.9380749,73.6784744 L9.95644293,76.1230469 L13.1033143,76.1230469 C20.1823973,76.1230469 26.3138165,70.7638666 28.6977453,63.0112377 C29.4650337,63.0640461 30.2325255,63.0907118 31,63.0907118 C48.9389808,63.0907118 63.5,48.9605488 63.5,31.5078125 C63.5001866,14.0551985 48.938926,-0.0750868056 31,-0.0750868056 C13.0603501,-0.0750868056 -1.5,14.0546919 -1.5,31.5075955 C-1.5,43.409261 5.33518171,54.1113668 15.9540363,59.5073884 Z"></path>
                            <path stroke="#124377" stroke-width="3" d="M16.2202014,72.6669956 C18.5461008,68.4677672 19.4782477,63.3611492 18.8453532,58.3387213 L18.7427996,57.5248923 L18.002282,57.1720912 C7.9787632,52.3966363 1.5,42.512627 1.5,31.5075955 C1.5,15.7320332 14.6973865,2.92491319 31,2.92491319 C47.3019015,2.92491319 60.5001686,15.7325462 60.5,31.5077965 C60.5,47.2831946 47.3019566,60.0907118 31,60.0907118 C29.9158582,60.0907118 28.8306128,60.0322003 27.7447591,59.9168175 L26.4448711,59.7786914 L26.1303321,61.0474911 C24.6715609,66.9319383 20.8419656,71.2945522 16.2202014,72.6669956 Z"></path>
                        </g>
                    </g>
                </g>
            </g>
        </g>
    </g>
</svg>