<?xml version="1.0" encoding="UTF-8"?>
<svg width="84px" height="83px" viewBox="0 0 84 83" version="1.1" xmlns="http://www.w3.org/2000/svg" xmlns:xlink="http://www.w3.org/1999/xlink">
    <!-- Generator: Sketch 43.1 (39012) - http://www.bohemiancoding.com/sketch -->
    <title>Light Bulb Icon</title>
    <desc>Created with Sketch.</desc>
    <defs></defs>
    <g id="website-deskto" stroke="none" stroke-width="1" fill="none" fill-rule="evenodd">
        <g id="Desktop" transform="translate(-1136.000000, -1085.000000)">
            <g id="Blurb-Consulting" transform="translate(1041.000000, 1086.000000)">
                <g id="Light-Bulb-Icon" transform="translate(97.000000, 0.000000)">
                    <g id="Group-4" transform="translate(16.000000, 11.000000)" stroke-width="3">
                        <path d="M32.0957729,55.2336185 C34.4068615,54.3897472 34.1254653,49.7052248 36.0238211,48.1759208 C37.922177,46.6466167 47.3214286,38.2568359 47.3214286,24.1071429 C47.3214286,11.2862469 36.9280388,0.892857143 24.1071429,0.892857143 C11.2862469,0.892857143 0.892857143,11.2863179 0.892857143,24.1071429 C0.892857143,38.3222307 10.0612095,46.7686244 11.9410924,48.1759208 C13.8209752,49.5832171 13.3777613,54.0332942 17.2922795,55.2336185 C17.9359055,55.4309761 31.513129,55.4463652 32.0957729,55.2336185 Z" id="Oval-2" stroke="#499DF6"></path>
                        <path d="M18.3035714,59.375 L29.9450043,59.375" id="Line" stroke="#124377" stroke-linecap="square"></path>
                        <path d="M18.3035714,63.8392857 L29.9450043,63.8392857" id="Line-Copy" stroke="#124377" stroke-linecap="square"></path>
                        <path d="M20.5357143,68.75 L27.3045131,68.75" id="Line-Copy-2" stroke="#124377" stroke-linecap="square"></path>
                    </g>
                    <path d="M8.5,36 L0.5,36" id="Line" stroke="#499DF6" stroke-width="4" stroke-linecap="round"></path>
                    <path d="M15.5,16 L7.5,16" id="Line-Copy-4" stroke="#499DF6" stroke-width="4" stroke-linecap="round"></path>
                    <path d="M45.0355339,1.46446609 L37.0355339,1.46446609" id="Line-Copy-5" stroke="#499DF6" stroke-width="4" stroke-linecap="round"></path>
                    <path d="M70.5,14 L62.5,14" id="Line-Copy-6" stroke="#499DF6" stroke-width="4" stroke-linecap="round"></path>
                    <path d="M79.5,36 L71.5,36" id="Line-Copy-3" stroke="#499DF6" stroke-width="4" stroke-linecap="round"></path>
                    <path d="M74.5,54 L66.5,54" id="Line-Copy-7" stroke="#499DF6" stroke-width="4" stroke-linecap="round"></path>
                    <path d="M14.5,54 L6.5,54" id="Line-Copy-8" stroke="#499DF6" stroke-width="4" stroke-linecap="round"></path>
                </g>
            </g>
        </g>
    </g>
</svg>